<svg xmlns="http://www.w3.org/2000/svg" width="96" height="96" viewBox="0 0 96 96">
  <rect width="96" height="96" fill="#9bc4da"/>
  <path d="M0 24 C20 14 40 34 60 24 C76 16 88 22 96 18 L96 36 C82 40 72 34 56 40 C36 48 20 32 0 40 Z" fill="#7eaec8"/>
  <path d="M0 62 C20 52 38 72 58 62 C74 54 88 60 96 56 L96 74 C82 78 74 72 58 78 C36 86 20 70 0 78 Z" fill="#7eaec8"/>
  <circle cx="18" cy="84" r="3" fill="#6e96aa"/>
  <circle cx="46" cy="16" r="3" fill="#6e96aa"/>
  <circle cx="80" cy="84" r="3" fill="#6e96aa"/>
</svg>
